<?xml version="1.0" encoding="UTF-8"?>
<svg xmlns="http://www.w3.org/2000/svg" version="1.1" viewBox="0 0 612 792">
  <!-- Generator: Adobe Illustrator 30.1.0, SVG Export Plug-In . SVG Version: 2.1.1 Build 136)  -->
  <defs>
    <style>
      .st0 {
        fill: #4272b8;
      }

      .st1 {
        fill: none;
        stroke: #fff;
        stroke-linecap: round;
        stroke-linejoin: round;
        stroke-width: 25px;
      }
    </style>
  </defs>
  <g id="Layer_2">
    <circle class="st0" cx="306.12" cy="388.19" r="299.83"/>
  </g>
  <g id="Layer_1">
    <path class="st1" d="M277.09,569.71c-13.05-8.06-178.78-112.82-175.35-224.52.39-12.59,1.3-42.36,22.09-68.61,20.49-25.88,55.65-42.48,92.91-38.57,52.34,5.49,78.12,48.21,80.71,52.7"/>
    <path class="st1" d="M325.85,346.17c9.45-9.63,22.43-25.08,31.87-46.83,13.67-31.52,10.46-54.28,17.86-56.1,6.56-1.62,20.18,13.52,51.66,92.31,8.02-5.97,18.41-15.54,25.11-29.93,11.82-25.4,3.07-46.27,10.62-49.25,8.88-3.5,30.61,21.6,40.56,49.73,4.6,13,6.83,27.16,6.28,43.45-1.46,42.81-21.31,74.9-31.38,90.77-49.94,78.64-154.19,133.56-172.3,142.91,10.24-20.04,22.51-49.73,28.43-87.39,7.71-49.09,1.16-89.78-4.83-114.43,33.31,19.96,66.63,39.91,99.94,59.87"/>
  </g>
</svg>